<svg xmlns="http://www.w3.org/2000/svg" viewBox="0 0 18 18" fill="currentColor">
  <path d="m7.748.854.779.13a3 3 0 012.44 3.588L10.5 6.75h3.046a2.748 2.748 0 012.204 4.387l.015.066A2.862 2.862 0 0115 13.874v.033c0 .227-.037.452-.109.668l-.08.21a2.815 2.815 0 01-2.59 1.715H9.516l-.294-.005a9.002 9.002 0 01-3.918-1.041l-.256-.142-.204-.116a1.502 1.502 0 00-.55-.186L4.102 15H2.625l-.116-.006a1.126 1.126 0 01-1.003-1.005l-.006-.114v-4.5c0-.62.504-1.124 1.125-1.124h1.342a.75.75 0 00.66-.395l.048-.107 2.24-6.403a.75.75 0 01.833-.491ZM6.09 8.243A2.25 2.25 0 013.967 9.75H3v3.749h1.1a3 3 0 011.49.395l.202.116a7.503 7.503 0 003.724.99h2.703c.566 0 1.07-.363 1.248-.9a.61.61 0 00.032-.193v-.655l.44-.439a1.36 1.36 0 00.363-1.272l-.014-.065-.157-.675.413-.556a1.248 1.248 0 00-.999-1.995H10.5a1.501 1.501 0 01-1.467-1.815L9.5 4.257a1.5 1.5 0 00-1.22-1.794l-.157-.026L6.09 8.243Z"/>
</svg>