<svg xmlns="http://www.w3.org/2000/svg" viewBox="0 0 24 24" fill="currentColor">
  <path d="M12.276 4.001 12.073 4h-.349c-1.025.005-2.05.022-3.074.052-.885.027-1.829.067-2.655.127-.797.058-1.57.141-2.064.274a3.51 3.51 0 00-2.477 2.476l.966.26-.966-.258-.084.351c-.182.862-.271 1.966-.316 2.846-.03.573-.047 1.147-.053 1.72l-.001.11v.194c.006.573.024 1.147.054 1.72.052 1.004.16 2.303.4 3.197a3.51 3.51 0 002.477 2.477c.494.133 1.267.216 2.064.274.885.06 1.77.102 2.655.127 1.025.03 2.05.047 3.074.052l.203.001h.146l.203-.001c1.025-.005 2.05-.022 3.074-.052a65.9 65.9 0 002.655-.127c.797-.058 1.57-.141 2.064-.274a3.51 3.51 0 002.477-2.475c.24-.895.348-2.195.4-3.2.03-.573.048-1.147.053-1.72l.001-.11v-.082l-.001-.111a41.989 41.989 0 00-.053-1.72c-.052-1.004-.16-2.304-.4-3.198a3.51 3.51 0 00-2.477-2.476c-.494-.133-1.267-.216-2.064-.274a62.01 62.01 0 00-2.655-.127 124.41 124.41 0 00-3.074-.052Zm-.543 2L11.932 6h.335c1.008.005 2.016.022 3.023.052.857.023 1.713.064 2.568.123.813.059 1.406.134 1.692.211h.002a1.51 1.51 0 011.062 1.062v.002c.18.666.282 1.772.335 2.782.021.418.036.836.044 1.255.003.161.006.291.006.379l.001.102v.064l-.001.102c-.005.545-.022 1.09-.05 1.634-.053 1.01-.155 2.116-.335 2.782v.002a1.51 1.51 0 01-1.062 1.063h-.002c-.286.076-.879.15-1.692.21-.855.06-1.711.1-2.568.124-1.007.029-2.014.045-3.023.05l-.199.001h-.136l-.199-.001a122.855 122.855 0 01-3.023-.051 61.138 61.138 0 01-2.568-.123c-.813-.059-1.406-.134-1.692-.211h-.002a1.51 1.51 0 01-1.062-1.062v-.002c-.18-.666-.283-1.772-.335-2.782-.026-.49-.038-.935-.044-1.255-.003-.161-.006-.291-.006-.379L3 12.032v-.166c.006-.545.023-1.09.051-1.634.052-1.01.155-2.116.335-2.782v-.002a1.51 1.51 0 011.062-1.063h.002c.286-.076.879-.15 1.692-.21.855-.059 1.711-.1 2.568-.124 1.007-.03 2.014-.046 3.023-.05ZM15 12l-5-3v6l5-3Z"/>
</svg>